{
  "accessors": [
    {
      "bufferView": 2,
      "componentType": 5126,
      "count": 27624,
      "max": [
        0.04192100092768669,
        -0.0033539999276399612,
        0.03779200091958046
      ],
      "min": [
        -0.040522001683712006,
        -0.056692998856306076,
        -0.0259380005300045
      ],
      "type": "VEC3"
    },
    {
      "bufferView": 2,
      "byteOffset": 331488,
      "componentType": 5126,
      "count": 27624,
      "max": [
        0.9987202882766724,
        0.9999915957450867,
        0.9991156458854675
      ],
      "min": [
        -0.999994695186615,
        -1.0,
        -0.9999992251396179
      ],
      "type": "VEC3"
    },
    {
      "bufferView": 1,
      "componentType": 5126,
      "count": 27624,
      "max": [
        0.9907649755477905,
        0.9998019933700562
      ],
      "min": [
        9.999999747378752e-05,
        0.0004360000020824373
      ],
      "type": "VEC2"
    },
    {
      "bufferView": 0,
      "componentType": 5125,
      "count": 161118,
      "type": "SCALAR"
    }
  ],
  "asset": {
    "extras": {
      "author": "NASA Astromaterials 3D (https://sketchfab.com/Astromaterials3D)",
      "license": "CC0-1.0 (http://creativecommons.org/publicdomain/zero/1.0/)",
      "source": "https://sketchfab.com/3d-models/antarctic-meteorite-sample-gro-170630-8dbceb5ab03f40ee9bb6a200c9e4a935",
      "title": "Antarctic Meteorite Sample GRO 17063,0"
    },
    "generator": "Sketchfab-13.74.0",
    "version": "2.0"
  },
  "bufferViews": [
    {
      "buffer": 0,
      "byteLength": 644472,
      "name": "floatBufferViews",
      "target": 34963
    },
    {
      "buffer": 0,
      "byteLength": 220992,
      "byteOffset": 644472,
      "byteStride": 8,
      "name": "floatBufferViews",
      "target": 34962
    },
    {
      "buffer": 0,
      "byteLength": 662976,
      "byteOffset": 865464,
      "byteStride": 12,
      "name": "floatBufferViews",
      "target": 34962
    }
  ],
  "buffers": [
    {
      "byteLength": 1528440,
      "uri": "scene.bin"
    }
  ],
  "images": [
    {
      "uri": "textures/GRO17063-0_Web-Resolution_Coordinate-Unregistered_baseColor.jpeg"
    }
  ],
  "materials": [
    {
      "doubleSided": true,
      "name": "GRO17063-0_Web-Resolution_Coordinate-Unregistered",
      "pbrMetallicRoughness": {
        "baseColorTexture": {
          "index": 0
        },
        "metallicFactor": 0.0
      }
    }
  ],
  "meshes": [
    {
      "name": "Object_0",
      "primitives": [
        {
          "attributes": {
            "NORMAL": 1,
            "POSITION": 0,
            "TEXCOORD_0": 2
          },
          "indices": 3,
          "material": 0,
          "mode": 4
        }
      ]
    }
  ],
  "nodes": [
    {
      "children": [
        1
      ],
      "matrix": [
        1.0,
        0.0,
        0.0,
        0.0,
        0.0,
        2.220446049250313e-16,
        -1.0,
        0.0,
        0.0,
        1.0,
        2.220446049250313e-16,
        0.0,
        0.0,
        0.0,
        0.0,
        1.0
      ],
      "name": "Sketchfab_model"
    },
    {
      "children": [
        2
      ],
      "name": "GRO17063-0_Web-Resolution_Coordinate-Unregistered.obj.cleaner.materialmerger.gles"
    },
    {
      "mesh": 0,
      "name": "Object_2"
    }
  ],
  "samplers": [
    {
      "magFilter": 9729,
      "minFilter": 9987,
      "wrapS": 10497,
      "wrapT": 10497
    }
  ],
  "scene": 0,
  "scenes": [
    {
      "name": "Sketchfab_Scene",
      "nodes": [
        0
      ]
    }
  ],
  "textures": [
    {
      "sampler": 0,
      "source": 0
    }
  ]
}
