{
  "accessors": [
    {
      "bufferView": 2,
      "componentType": 5126,
      "count": 84,
      "max": [
        0.9999997615814209,
        1.2919116020202637,
        1.0000001192092896
      ],
      "min": [
        -1.0000004768371582,
        -0.9999997615814209,
        -1.0000005960464478
      ],
      "type": "VEC3"
    },
    {
      "bufferView": 2,
      "byteOffset": 1008,
      "componentType": 5126,
      "count": 84,
      "max": [
        0.9876887798309326,
        1.0,
        1.0
      ],
      "min": [
        -1.0,
        -1.5863134523329667e-23,
        -1.0
      ],
      "type": "VEC3"
    },
    {
      "bufferView": 3,
      "componentType": 5126,
      "count": 84,
      "max": [
        0.5218191146850586,
        2.529705511733482e-07,
        0.5210601091384888,
        1.0
      ],
      "min": [
        -0.521060049533844,
        -1.0,
        -0.8849554061889648,
        1.0
      ],
      "type": "VEC4"
    },
    {
      "bufferView": 1,
      "componentType": 5126,
      "count": 84,
      "max": [
        0.8341400623321533,
        0.33143845200538635
      ],
      "min": [
        0.2940516471862793,
        9.998679161071777e-06
      ],
      "type": "VEC2"
    },
    {
      "bufferView": 0,
      "componentType": 5125,
      "count": 300,
      "type": "SCALAR"
    },
    {
      "bufferView": 2,
      "byteOffset": 2016,
      "componentType": 5126,
      "count": 84,
      "max": [
        0.9999995231628418,
        1.3803997039794922,
        1.0000001192092896
      ],
      "min": [
        -1.0000007152557373,
        -1.0000009536743164,
        -1.0000005960464478
      ],
      "type": "VEC3"
    },
    {
      "bufferView": 2,
      "byteOffset": 3024,
      "componentType": 5126,
      "count": 84,
      "max": [
        0.9876887798309326,
        1.0,
        1.0
      ],
      "min": [
        -1.0,
        0.0,
        -1.0
      ],
      "type": "VEC3"
    },
    {
      "bufferView": 3,
      "byteOffset": 1344,
      "componentType": 5126,
      "count": 84,
      "max": [
        0.4635704755783081,
        1.0,
        0.4635711908340454,
        1.0
      ],
      "min": [
        -0.9993909001350403,
        -1.0500265545942966e-08,
        -0.4635709524154663,
        1.0
      ],
      "type": "VEC4"
    },
    {
      "bufferView": 1,
      "byteOffset": 672,
      "componentType": 5126,
      "count": 84,
      "max": [
        0.8276179432868958,
        0.9537183046340942
      ],
      "min": [
        0.705337643623352,
        0.013738632202148438
      ],
      "type": "VEC2"
    },
    {
      "bufferView": 0,
      "byteOffset": 1200,
      "componentType": 5125,
      "count": 300,
      "type": "SCALAR"
    },
    {
      "bufferView": 2,
      "byteOffset": 4032,
      "componentType": 5126,
      "count": 58,
      "max": [
        0.3159751296043396,
        2.2841179370880127,
        0.5612146258354187
      ],
      "min": [
        -1.0440915822982788,
        1.0144950151443481,
        -0.4387854039669037
      ],
      "type": "VEC3"
    },
    {
      "bufferView": 2,
      "byteOffset": 4728,
      "componentType": 5126,
      "count": 58,
      "max": [
        0.94086754322052,
        1.0,
        1.0
      ],
      "min": [
        -0.9864658117294312,
        -1.0,
        -1.0
      ],
      "type": "VEC3"
    },
    {
      "bufferView": 3,
      "byteOffset": 2688,
      "componentType": 5126,
      "count": 58,
      "max": [
        1.0,
        1.0,
        1.0,
        1.0
      ],
      "min": [
        -1.9012056782230502e-06,
        -1.0,
        -1.5127901153988432e-09,
        1.0
      ],
      "type": "VEC4"
    },
    {
      "bufferView": 1,
      "byteOffset": 1344,
      "componentType": 5126,
      "count": 58,
      "max": [
        0.8071960806846619,
        0.9570143222808838
      ],
      "min": [
        9.521842002868652e-06,
        0.011571824550628662
      ],
      "type": "VEC2"
    },
    {
      "bufferView": 0,
      "byteOffset": 2400,
      "componentType": 5125,
      "count": 132,
      "type": "SCALAR"
    },
    {
      "bufferView": 2,
      "byteOffset": 5424,
      "componentType": 5126,
      "count": 611,
      "max": [
        1.0506231784820557,
        2.9790968894958496,
        1.0506234169006348
      ],
      "min": [
        -1.0506235361099243,
        -2.40415096282959,
        -1.0506237745285034
      ],
      "type": "VEC3"
    },
    {
      "bufferView": 2,
      "byteOffset": 12756,
      "componentType": 5126,
      "count": 611,
      "max": [
        1.0,
        1.0,
        1.0
      ],
      "min": [
        -0.987688422203064,
        -1.0,
        -1.0
      ],
      "type": "VEC3"
    },
    {
      "bufferView": 3,
      "byteOffset": 3616,
      "componentType": 5126,
      "count": 611,
      "max": [
        0.999835729598999,
        0.9993307590484619,
        0.9998358488082886,
        1.0
      ],
      "min": [
        -0.9998354315757751,
        -0.9788703918457031,
        -0.9998358488082886,
        1.0
      ],
      "type": "VEC4"
    },
    {
      "bufferView": 1,
      "byteOffset": 1808,
      "componentType": 5126,
      "count": 611,
      "max": [
        0.9510366916656494,
        0.9207552075386047
      ],
      "min": [
        9.5367431640625e-06,
        0.00183945894241333
      ],
      "type": "VEC2"
    },
    {
      "bufferView": 0,
      "byteOffset": 2928,
      "componentType": 5125,
      "count": 2640,
      "type": "SCALAR"
    },
    {
      "bufferView": 2,
      "byteOffset": 20088,
      "componentType": 5126,
      "count": 58,
      "max": [
        0.8600667715072632,
        0.5000005960464478,
        0.4999997615814209
      ],
      "min": [
        -0.5,
        -0.7696223258972168,
        -0.5000004768371582
      ],
      "type": "VEC3"
    },
    {
      "bufferView": 2,
      "byteOffset": 20784,
      "componentType": 5126,
      "count": 58,
      "max": [
        0.94086754322052,
        1.0,
        1.0
      ],
      "min": [
        -0.9864658117294312,
        -1.0,
        -1.0
      ],
      "type": "VEC3"
    },
    {
      "bufferView": 3,
      "byteOffset": 13392,
      "componentType": 5126,
      "count": 58,
      "max": [
        1.0,
        1.0,
        1.0,
        1.0
      ],
      "min": [
        -3.0724829684913857e-06,
        -1.0,
        -1.4734242714808943e-09,
        1.0
      ],
      "type": "VEC4"
    },
    {
      "bufferView": 1,
      "byteOffset": 6696,
      "componentType": 5126,
      "count": 58,
      "max": [
        0.9522895812988281,
        0.9999898672103882
      ],
      "min": [
        0.1954174041748047,
        0.011098235845565796
      ],
      "type": "VEC2"
    },
    {
      "bufferView": 0,
      "byteOffset": 13488,
      "componentType": 5125,
      "count": 132,
      "type": "SCALAR"
    },
    {
      "bufferView": 2,
      "byteOffset": 21480,
      "componentType": 5126,
      "count": 58,
      "max": [
        0.8600667715072632,
        0.5000004768371582,
        0.5
      ],
      "min": [
        -0.5,
        -0.7696223258972168,
        -0.5
      ],
      "type": "VEC3"
    },
    {
      "bufferView": 2,
      "byteOffset": 22176,
      "componentType": 5126,
      "count": 58,
      "max": [
        0.94086754322052,
        1.0,
        1.0
      ],
      "min": [
        -0.9864658117294312,
        -1.0,
        -1.0
      ],
      "type": "VEC3"
    },
    {
      "bufferView": 3,
      "byteOffset": 14320,
      "componentType": 5126,
      "count": 58,
      "max": [
        1.0,
        1.0,
        1.0,
        1.0
      ],
      "min": [
        -2.0026009224238805e-06,
        -1.0,
        -1.5127901153988432e-09,
        1.0
      ],
      "type": "VEC4"
    },
    {
      "bufferView": 1,
      "byteOffset": 7160,
      "componentType": 5126,
      "count": 58,
      "max": [
        0.9480608701705933,
        0.9591820240020752
      ],
      "min": [
        0.053979381918907166,
        0.004430174827575684
      ],
      "type": "VEC2"
    },
    {
      "bufferView": 0,
      "byteOffset": 14016,
      "componentType": 5125,
      "count": 132,
      "type": "SCALAR"
    },
    {
      "bufferView": 2,
      "byteOffset": 22872,
      "componentType": 5126,
      "count": 58,
      "max": [
        0.8600667715072632,
        0.5000005960464478,
        0.5
      ],
      "min": [
        -0.5,
        -0.7696223258972168,
        -0.4999997615814209
      ],
      "type": "VEC3"
    },
    {
      "bufferView": 2,
      "byteOffset": 23568,
      "componentType": 5126,
      "count": 58,
      "max": [
        0.9408676028251648,
        1.0,
        1.0
      ],
      "min": [
        -0.9864658117294312,
        -1.0,
        -1.0
      ],
      "type": "VEC3"
    },
    {
      "bufferView": 3,
      "byteOffset": 15248,
      "componentType": 5126,
      "count": 58,
      "max": [
        1.0,
        1.0,
        1.0,
        1.0
      ],
      "min": [
        -2.6113477815670194e-06,
        -1.0,
        -1.473425159659314e-09,
        1.0
      ],
      "type": "VEC4"
    },
    {
      "bufferView": 1,
      "byteOffset": 7624,
      "componentType": 5126,
      "count": 58,
      "max": [
        0.9512125253677368,
        0.9673711061477661
      ],
      "min": [
        9.5367431640625e-06,
        0.016906917095184326
      ],
      "type": "VEC2"
    },
    {
      "bufferView": 0,
      "byteOffset": 14544,
      "componentType": 5125,
      "count": 132,
      "type": "SCALAR"
    },
    {
      "bufferView": 4,
      "componentType": 5126,
      "count": 1,
      "max": [
        0.0416666679084301
      ],
      "min": [
        0.0416666679084301
      ],
      "type": "SCALAR"
    },
    {
      "bufferView": 5,
      "componentType": 5126,
      "count": 1,
      "max": [
        2.5271458625793457,
        0.9908356666564941,
        -0.013951265253126621
      ],
      "min": [
        2.5271458625793457,
        0.9908356666564941,
        -0.013951265253126621
      ],
      "type": "VEC3"
    },
    {
      "bufferView": 4,
      "byteOffset": 4,
      "componentType": 5126,
      "count": 1,
      "max": [
        0.0416666679084301
      ],
      "min": [
        0.0416666679084301
      ],
      "type": "SCALAR"
    },
    {
      "bufferView": 5,
      "byteOffset": 12,
      "componentType": 5126,
      "count": 1,
      "max": [
        1.1875172853469849,
        0.5839691758155823,
        0.22790749371051788
      ],
      "min": [
        1.1875172853469849,
        0.5839691758155823,
        0.22790749371051788
      ],
      "type": "VEC3"
    }
  ],
  "animations": [
    {
      "channels": [
        {
          "sampler": 0,
          "target": {
            "node": 9,
            "path": "translation"
          }
        },
        {
          "sampler": 1,
          "target": {
            "node": 9,
            "path": "scale"
          }
        }
      ],
      "name": "Take 001",
      "samplers": [
        {
          "input": 35,
          "interpolation": "LINEAR",
          "output": 36
        },
        {
          "input": 37,
          "interpolation": "LINEAR",
          "output": 38
        }
      ]
    }
  ],
  "asset": {
    "extras": {
      "author": "Wnsz (https://sketchfab.com/gerard.krol22)",
      "license": "CC-BY-4.0 (http://creativecommons.org/licenses/by/4.0/)",
      "source": "https://sketchfab.com/3d-models/rocket-lowpoly-a6beb3d86c7348efb13f1f7190db22be",
      "title": "Rocket lowpoly"
    },
    "generator": "Sketchfab-12.66.0",
    "version": "2.0"
  },
  "bufferViews": [
    {
      "buffer": 0,
      "byteLength": 15072,
      "name": "floatBufferViews",
      "target": 34963
    },
    {
      "buffer": 0,
      "byteLength": 8088,
      "byteOffset": 15072,
      "byteStride": 8,
      "name": "floatBufferViews",
      "target": 34962
    },
    {
      "buffer": 0,
      "byteLength": 24264,
      "byteOffset": 23160,
      "byteStride": 12,
      "name": "floatBufferViews",
      "target": 34962
    },
    {
      "buffer": 0,
      "byteLength": 16176,
      "byteOffset": 47424,
      "byteStride": 16,
      "name": "floatBufferViews",
      "target": 34962
    },
    {
      "buffer": 0,
      "byteLength": 8,
      "byteOffset": 63600,
      "name": "floatBufferViews"
    },
    {
      "buffer": 0,
      "byteLength": 24,
      "byteOffset": 63608,
      "byteStride": 12,
      "name": "floatBufferViews"
    }
  ],
  "buffers": [
    {
      "byteLength": 63632,
      "uri": "scene.bin"
    }
  ],
  "images": [
    {
      "uri": "textures/lambert1_baseColor.png"
    },
    {
      "uri": "textures/lambert1_metallicRoughness.png"
    },
    {
      "uri": "textures/lambert1_emissive.png"
    },
    {
      "uri": "textures/lambert1_normal.png"
    }
  ],
  "materials": [
    {
      "doubleSided": true,
      "emissiveFactor": [
        1.0,
        1.0,
        1.0
      ],
      "emissiveTexture": {
        "index": 2
      },
      "name": "lambert1",
      "normalTexture": {
        "index": 3
      },
      "occlusionTexture": {
        "index": 1
      },
      "pbrMetallicRoughness": {
        "baseColorTexture": {
          "index": 0
        },
        "metallicRoughnessTexture": {
          "index": 1
        }
      }
    }
  ],
  "meshes": [
    {
      "name": "rocket1_lambert1_0",
      "primitives": [
        {
          "attributes": {
            "NORMAL": 1,
            "POSITION": 0,
            "TANGENT": 2,
            "TEXCOORD_0": 3
          },
          "indices": 4,
          "material": 0,
          "mode": 4
        }
      ]
    },
    {
      "name": "rocket2_lambert1_0",
      "primitives": [
        {
          "attributes": {
            "NORMAL": 6,
            "POSITION": 5,
            "TANGENT": 7,
            "TEXCOORD_0": 8
          },
          "indices": 9,
          "material": 0,
          "mode": 4
        }
      ]
    },
    {
      "name": "rocket7_lambert1_0",
      "primitives": [
        {
          "attributes": {
            "NORMAL": 11,
            "POSITION": 10,
            "TANGENT": 12,
            "TEXCOORD_0": 13
          },
          "indices": 14,
          "material": 0,
          "mode": 4
        }
      ]
    },
    {
      "name": "rocket8_lambert1_0",
      "primitives": [
        {
          "attributes": {
            "NORMAL": 16,
            "POSITION": 15,
            "TANGENT": 17,
            "TEXCOORD_0": 18
          },
          "indices": 19,
          "material": 0,
          "mode": 4
        }
      ]
    },
    {
      "name": "rocket9_lambert1_0",
      "primitives": [
        {
          "attributes": {
            "NORMAL": 21,
            "POSITION": 20,
            "TANGENT": 22,
            "TEXCOORD_0": 23
          },
          "indices": 24,
          "material": 0,
          "mode": 4
        }
      ]
    },
    {
      "name": "rocket10_lambert1_0",
      "primitives": [
        {
          "attributes": {
            "NORMAL": 26,
            "POSITION": 25,
            "TANGENT": 27,
            "TEXCOORD_0": 28
          },
          "indices": 29,
          "material": 0,
          "mode": 4
        }
      ]
    },
    {
      "name": "rocket11_lambert1_0",
      "primitives": [
        {
          "attributes": {
            "NORMAL": 31,
            "POSITION": 30,
            "TANGENT": 32,
            "TEXCOORD_0": 33
          },
          "indices": 34,
          "material": 0,
          "mode": 4
        }
      ]
    }
  ],
  "nodes": [
    {
      "children": [
        1
      ],
      "matrix": [
        0.3184109032154083,
        0.0,
        0.0,
        0.0,
        0.0,
        7.070142320828772e-17,
        -0.3184109032154083,
        0.0,
        0.0,
        0.3184109032154083,
        7.070142320828772e-17,
        0.0,
        0.0,
        0.0,
        0.0,
        1.0
      ],
      "name": "Sketchfab_model"
    },
    {
      "children": [
        2
      ],
      "matrix": [
        1.0,
        0.0,
        0.0,
        0.0,
        0.0,
        0.0,
        1.0,
        0.0,
        0.0,
        -1.0,
        0.0,
        0.0,
        0.0,
        0.0,
        0.0,
        1.0
      ],
      "name": "1a6cbec532d846e3a731e63336a7dfda.fbx"
    },
    {
      "children": [
        3
      ],
      "name": "Object_2"
    },
    {
      "children": [
        4
      ],
      "name": "RootNode"
    },
    {
      "children": [
        5,
        7,
        9,
        11,
        13,
        15,
        17
      ],
      "name": "rocket_low",
      "translation": [
        0.0,
        0.0,
        -8.99014663696289
      ]
    },
    {
      "children": [
        6
      ],
      "name": "rocket1",
      "rotation": [
        1.0,
        0.0,
        0.0,
        6.123234262925839e-17
      ],
      "scale": [
        0.316994845867157,
        0.16405344009399414,
        0.316994845867157
      ],
      "translation": [
        -0.7003921270370483,
        0.12527169287204742,
        8.99014663696289
      ]
    },
    {
      "mesh": 0,
      "name": "rocket1_lambert1_0"
    },
    {
      "children": [
        8
      ],
      "name": "rocket2",
      "scale": [
        0.316994845867157,
        0.16405344009399414,
        0.316994845867157
      ],
      "translation": [
        -0.7003921270370483,
        1.8747283220291138,
        8.99014663696289
      ]
    },
    {
      "mesh": 1,
      "name": "rocket2_lambert1_0"
    },
    {
      "children": [
        10
      ],
      "name": "rocket7",
      "scale": [
        1.3730219602584839,
        0.6983439326286316,
        0.22790749371051788
      ],
      "translation": [
        2.4875049591064453,
        1.0,
        8.99014663696289
      ]
    },
    {
      "mesh": 2,
      "name": "rocket7_lambert1_0"
    },
    {
      "children": [
        12
      ],
      "name": "rocket8",
      "rotation": [
        0.0,
        0.0,
        0.7071068286895752,
        0.7071068286895752
      ],
      "translation": [
        0.0,
        1.0,
        8.99014663696289
      ]
    },
    {
      "mesh": 3,
      "name": "rocket8_lambert1_0"
    },
    {
      "children": [
        14
      ],
      "name": "rocket9",
      "rotation": [
        0.7071068286895752,
        0.0,
        0.0,
        0.7071068286895752
      ],
      "scale": [
        1.3730219602584839,
        0.6983439326286316,
        0.22790749371051788
      ],
      "translation": [
        1.7404552698135376,
        0.9860487580299377,
        10.236074447631836
      ]
    },
    {
      "mesh": 4,
      "name": "rocket9_lambert1_0"
    },
    {
      "children": [
        16
      ],
      "name": "rocket10",
      "rotation": [
        1.0,
        0.0,
        0.0,
        6.123234262925839e-17
      ],
      "scale": [
        1.3730219602584839,
        0.6983439326286316,
        0.22790749371051788
      ],
      "translation": [
        1.7404552698135376,
        -0.2459275722503662,
        8.976195335388184
      ]
    },
    {
      "mesh": 5,
      "name": "rocket10_lambert1_0"
    },
    {
      "children": [
        18
      ],
      "name": "rocket11",
      "rotation": [
        -0.7071068286895752,
        0.0,
        0.0,
        0.7071068286895752
      ],
      "scale": [
        1.3730219602584839,
        0.6983439326286316,
        0.22790749371051788
      ],
      "translation": [
        1.7404552698135376,
        1.013951301574707,
        7.7442193031311035
      ]
    },
    {
      "mesh": 6,
      "name": "rocket11_lambert1_0"
    }
  ],
  "samplers": [
    {
      "magFilter": 9729,
      "minFilter": 9987,
      "wrapS": 10497,
      "wrapT": 10497
    }
  ],
  "scene": 0,
  "scenes": [
    {
      "name": "Sketchfab_Scene",
      "nodes": [
        0
      ]
    }
  ],
  "textures": [
    {
      "sampler": 0,
      "source": 0
    },
    {
      "sampler": 0,
      "source": 1
    },
    {
      "sampler": 0,
      "source": 2
    },
    {
      "sampler": 0,
      "source": 3
    }
  ]
}
